<svg width="603" height="660" viewBox="0 0 603 660" fill="none" xmlns="http://www.w3.org/2000/svg">
<rect width="603" height="660" fill="#F5F5F5"/>
<path d="M295 0H603V660H295V0Z" fill="#F8F4F3" fill-opacity="0.68"/>
<rect x="0.5" y="0.5" width="308" height="659" fill="black" stroke="black"/>
<g clip-path="url(#clip0_0_1)">
<path d="M485.049 514L570 308H513.687L455.581 441.117L414.254 308H370.958L326.603 441.117L295.31 380.465L267 465.719L295.747 514H351.164L391.256 394.617L429.512 514H485.049Z" fill="black"/>
<line x1="180.462" y1="148.191" x2="84.462" y2="380.191" stroke="black"/>
<line x1="233.464" y1="148.187" x2="158.464" y2="334.187" stroke="black"/>
<line x1="158" y1="333.5" x2="333" y2="333.5" stroke="black"/>
<line x1="180" y1="147.5" x2="233" y2="147.5" stroke="black"/>
<line x1="84.0003" y1="379.5" x2="295" y2="379.613" stroke="black"/>
<line x1="333.385" y1="334.318" x2="295.385" y2="380.318" stroke="black"/>
<g filter="url(#filter0_i_0_1)">
<path d="M85 379.5L181 150H233.5L160 335.5H333.5L295.5 379.5H85Z" fill="#FFFCFC"/>
</g>
<path d="M85 379.5L181 150H233.5L160 335.5H333.5L295.5 379.5H85Z" stroke="black"/>
</g>
<defs>
<filter id="filter0_i_0_1" x="84.2488" y="149.5" width="250.344" height="234.5" filterUnits="userSpaceOnUse" color-interpolation-filters="sRGB">
<feFlood flood-opacity="0" result="BackgroundImageFix"/>
<feBlend mode="normal" in="SourceGraphic" in2="BackgroundImageFix" result="shape"/>
<feColorMatrix in="SourceAlpha" type="matrix" values="0 0 0 0 0 0 0 0 0 0 0 0 0 0 0 0 0 0 127 0" result="hardAlpha"/>
<feOffset dy="4"/>
<feGaussianBlur stdDeviation="2"/>
<feComposite in2="hardAlpha" operator="arithmetic" k2="-1" k3="1"/>
<feColorMatrix type="matrix" values="0 0 0 0 0 0 0 0 0 0 0 0 0 0 0 0 0 0 0.25 0"/>
<feBlend mode="normal" in2="shape" result="effect1_innerShadow_0_1"/>
</filter>
<clipPath id="clip0_0_1">
<rect width="512" height="512" fill="white" transform="translate(53 37)"/>
</clipPath>
</defs>
</svg>
