<svg width="584" height="623" viewBox="0 0 584 623" fill="none" xmlns="http://www.w3.org/2000/svg">
<rect width="584" height="623" fill="#F5F5F5"/>
<path d="M294 40H584V623H294V40Z" fill="#F8F4F3" fill-opacity="0.68"/>
<rect x="0.5" y="40.5" width="294" height="582" fill="black" stroke="black"/>
<path d="M467.49 469L545.21 277H493.69L440.53 401.07L402.72 277H363.11L322.53 401.07L293.9 344.54L268 424L294.3 469H345L381.68 357.73L416.68 469H467.49Z" fill="black"/>
<line x1="180.462" y1="111.191" x2="84.462" y2="343.191" stroke="black"/>
<line x1="233.464" y1="111.187" x2="158.464" y2="297.187" stroke="black"/>
<line x1="158" y1="296.5" x2="333" y2="296.5" stroke="black"/>
<line x1="180" y1="110.5" x2="233" y2="110.5" stroke="black"/>
<line x1="84.0003" y1="342.5" x2="295" y2="342.613" stroke="black"/>
<line x1="333.385" y1="297.318" x2="295.385" y2="343.318" stroke="black"/>
<g filter="url(#filter0_i_0_1)">
<path d="M85 342.5L181 113H233.5L160 298.5H333.5L295.5 342.5H85Z" fill="#FFFCFC"/>
</g>
<path d="M85 342.5L181 113H233.5L160 298.5H333.5L295.5 342.5H85Z" stroke="black"/>
<defs>
<filter id="filter0_i_0_1" x="84.2488" y="112.5" width="250.344" height="234.5" filterUnits="userSpaceOnUse" color-interpolation-filters="sRGB">
<feFlood flood-opacity="0" result="BackgroundImageFix"/>
<feBlend mode="normal" in="SourceGraphic" in2="BackgroundImageFix" result="shape"/>
<feColorMatrix in="SourceAlpha" type="matrix" values="0 0 0 0 0 0 0 0 0 0 0 0 0 0 0 0 0 0 127 0" result="hardAlpha"/>
<feOffset dy="4"/>
<feGaussianBlur stdDeviation="2"/>
<feComposite in2="hardAlpha" operator="arithmetic" k2="-1" k3="1"/>
<feColorMatrix type="matrix" values="0 0 0 0 0 0 0 0 0 0 0 0 0 0 0 0 0 0 0.25 0"/>
<feBlend mode="normal" in2="shape" result="effect1_innerShadow_0_1"/>
</filter>
</defs>
</svg>
